<svg xmlns="http://www.w3.org/2000/svg" width="2240" height="1580" viewBox="0 0 2240 1580" role="img" aria-labelledby="title desc">
<title id="title">Venddy Store: monolito modular en tres capas</title>
<desc id="desc">Adaptación de la estructura del Marketplace para Venddy. Comensal, personal y administración usan el cliente web. Cinco columnas agrupan los módulos de negocio. La API accede a PostgreSQL y proveedores a través de infraestructura. Las flechas indican llamadas durante la ejecución; el enfoque Clean Architecture define las dependencias de código.</desc>
<defs>
 <marker id="arrow" markerWidth="10" markerHeight="10" refX="8" refY="5" orient="auto" markerUnits="userSpaceOnUse"><path d="M0 0 L9 5 L0 10 Z" fill="#4b5563" /></marker>
 <marker id="green" markerWidth="10" markerHeight="10" refX="8" refY="5" orient="auto" markerUnits="userSpaceOnUse"><path d="M1 1 L8 5 L1 9" fill="none" stroke="#69966a" stroke-width="2" /></marker>
</defs>
<rect width="2240" height="1580" fill="white" />
<g font-family="Arial, Helvetica, sans-serif" fill="#202833">
<text x="45" y="37" font-size="26" font-weight="700" text-anchor="start" fill="#202833">VENDDY STORE · MONOLITO MODULAR EN TRES CAPAS</text>
<text x="2195" y="36" font-size="20" font-weight="400" text-anchor="end" fill="#66717e">Guía 03 · Paso 4</text>
<rect x="620" y="80" width="240" height="58" rx="0" fill="white" stroke="#8a929b" stroke-width="1.7" />
<text x="740" y="116" font-size="24" font-weight="700" text-anchor="middle" fill="#202833">Comensal</text>
<path d="M740 138 V170 H1050" fill="none" stroke="#4b5563" stroke-width="2" />
<rect x="930" y="80" width="240" height="58" rx="0" fill="white" stroke="#8a929b" stroke-width="1.7" />
<text x="1050" y="116" font-size="24" font-weight="700" text-anchor="middle" fill="#202833">Personal</text>
<path d="M1050 138 V170 H1050" fill="none" stroke="#4b5563" stroke-width="2" />
<rect x="1240" y="80" width="240" height="58" rx="0" fill="white" stroke="#8a929b" stroke-width="1.7" />
<text x="1360" y="116" font-size="24" font-weight="700" text-anchor="middle" fill="#202833">Administración</text>
<path d="M1360 138 V170 H1050" fill="none" stroke="#4b5563" stroke-width="2" />
<path d="M1050 170 V200" fill="none" stroke="#4b5563" stroke-width="2" marker-end="url(#arrow)" />
<rect x="740" y="200" width="620" height="82" rx="3" fill="white" stroke="#8a929b" stroke-width="1.7" />
<text x="1050" y="233" font-size="26" font-weight="700" text-anchor="middle" fill="#202833">Cliente Web</text>
<text x="1050" y="261" font-size="20" font-weight="400" text-anchor="middle" fill="#66717e">Carta QR · caja · cocina · administración | Next.js / React</text>
<path d="M1050 282 V460" fill="none" stroke="#4b5563" stroke-width="2" marker-end="url(#arrow)" />
<rect x="972.8" y="304" width="154.4" height="26" rx="0" fill="white" stroke="white" stroke-width="1.7" />
<text x="1050" y="322" font-size="20" font-weight="400" text-anchor="middle" fill="#202833">HTTPS · JSON</text>
<rect x="961" y="331" width="178" height="26" rx="0" fill="white" stroke="white" stroke-width="1.7" />
<text x="1050" y="349" font-size="18" font-weight="400" text-anchor="middle" fill="#202833">REST / Socket.IO</text>
<rect x="45" y="365" width="1830" height="910" rx="0" fill="none" stroke="#626b75" stroke-width="1.7" stroke-dasharray="16 10" />
<rect x="59" y="375" width="1020" height="51" rx="0" fill="white" stroke="white" stroke-width="1.7" />
<text x="67" y="396" font-size="25" font-weight="700" text-anchor="start" fill="#202833">«monolito» Venddy Backend [Node.js + Express + Socket.IO]</text>
<text x="67" y="421" font-size="20" font-weight="400" text-anchor="start" fill="#66717e">Una sola aplicación · un proceso por instancia · una unidad de despliegue</text>
<rect x="75" y="440" width="1770" height="340" rx="0" fill="#f2f6fd" stroke="#bac3ca" stroke-width="1.7" />
<rect x="75" y="795" width="1770" height="235" rx="0" fill="#f3f8f2" stroke="#bac3ca" stroke-width="1.7" />
<rect x="75" y="1045" width="1770" height="200" rx="0" fill="#fcf8ef" stroke="#bac3ca" stroke-width="1.7" />
<rect x="75" y="440" width="275" height="340" rx="0" fill="#e1eaf6" stroke="#bac3ca" stroke-width="1.7" />
<rect x="75" y="795" width="275" height="235" rx="0" fill="#e6efde" stroke="#bac3ca" stroke-width="1.7" />
<rect x="75" y="1045" width="275" height="200" rx="0" fill="#f5ead0" stroke="#bac3ca" stroke-width="1.7" />
<text x="96" y="548" font-size="24" font-weight="700" text-anchor="start" fill="#202833">1. CAPA DE</text>
<text x="96" y="579" font-size="24" font-weight="700" text-anchor="start" fill="#202833">PRESENTACIÓN</text>
<text x="96" y="637" font-size="20" font-weight="400" text-anchor="start" fill="#202833">Recibe peticiones HTTP,</text>
<text x="96" y="666" font-size="20" font-weight="400" text-anchor="start" fill="#202833">autentica, valida entradas</text>
<text x="96" y="695" font-size="20" font-weight="400" text-anchor="start" fill="#202833">y responde JSON.</text>
<text x="96" y="862" font-size="23" font-weight="700" text-anchor="start" fill="#202833">2. CAPA DE LÓGICA</text>
<text x="96" y="893" font-size="23" font-weight="700" text-anchor="start" fill="#202833">DE NEGOCIO</text>
<text x="96" y="947" font-size="20" font-weight="400" text-anchor="start" fill="#202833">Reglas de negocio y</text>
<text x="96" y="976" font-size="20" font-weight="400" text-anchor="start" fill="#202833">coordinación entre módulos.</text>
<text x="96" y="1120" font-size="23" font-weight="700" text-anchor="start" fill="#202833">3. CAPA DE DATOS</text>
<text x="96" y="1170" font-size="20" font-weight="400" text-anchor="start" fill="#202833">Persistencia y consultas</text>
<text x="96" y="1199" font-size="20" font-weight="400" text-anchor="start" fill="#202833">a la base de datos.</text>
<rect x="365" y="460" width="1460" height="51" rx="0" fill="#dae5fb" stroke="#7e9bcc" stroke-width="1.7" />
<text x="1095" y="482" font-size="20" font-weight="700" text-anchor="middle" fill="#202833">Middlewares Express (transversales)</text>
<text x="1095" y="501" font-size="18" font-weight="400" text-anchor="middle" fill="#202833">contexto de empresa · sesión y permisos · validación · manejo de errores · requestId</text>
<rect x="380" y="535" width="260" height="620" rx="0" fill="none" stroke="#949ea8" stroke-width="1.7" stroke-dasharray="6 5" />
<text x="510" y="562" font-size="21" font-weight="700" text-anchor="middle" fill="#202833">Identidad y gestión</text>
<text x="510" y="584" font-size="16" font-weight="400" text-anchor="middle" fill="#6d7783">gestión / plataforma</text>
<rect x="393" y="600" width="234" height="46" rx="0" fill="white" stroke="#7e9bcc" stroke-width="1.7" />
<text x="510" y="629" font-size="19" font-weight="400" text-anchor="middle" fill="#202833">gestion.routes.ts</text>
<path d="M510 646 V685" fill="none" stroke="#4b5563" stroke-width="2" marker-end="url(#arrow)" />
<rect x="393" y="685" width="234" height="58" rx="0" fill="white" stroke="#7e9bcc" stroke-width="1.7" />
<text x="510" y="720" font-size="18" font-weight="400" text-anchor="middle" fill="#202833">gestion.controller.ts</text>
<path d="M510 743 V840" fill="none" stroke="#4b5563" stroke-width="2" marker-end="url(#arrow)" />
<rect x="393" y="840" width="234" height="86" rx="0" fill="#d9e8cf" stroke="#91b578" stroke-width="1.7" />
<text x="510" y="868" font-size="18" font-weight="700" text-anchor="middle" fill="#202833">gestion.service.ts</text>
<text x="510" y="902" font-size="16" font-weight="400" text-anchor="middle" fill="#202833">personal, permisos, negocios</text>
<path d="M510 926 V1080" fill="none" stroke="#4b5563" stroke-width="2" marker-end="url(#arrow)" />
<rect x="393" y="1080" width="234" height="54" rx="0" fill="white" stroke="#d5ac4c" stroke-width="1.7" />
<text x="510" y="1113" font-size="17" font-weight="400" text-anchor="middle" fill="#202833">gestion.repository.ts</text>
<path d="M510 1134 V1160 H1095" fill="none" stroke="#4b5563" stroke-width="2" />
<rect x="670" y="535" width="260" height="620" rx="0" fill="none" stroke="#949ea8" stroke-width="1.7" stroke-dasharray="6 5" />
<text x="800" y="562" font-size="21" font-weight="700" text-anchor="middle" fill="#202833">Carta y catálogo</text>
<text x="800" y="584" font-size="16" font-weight="400" text-anchor="middle" fill="#6d7783">catálogo / carta QR</text>
<rect x="683" y="600" width="234" height="46" rx="0" fill="white" stroke="#7e9bcc" stroke-width="1.7" />
<text x="800" y="629" font-size="19" font-weight="400" text-anchor="middle" fill="#202833">catalogo.routes.ts</text>
<path d="M800 646 V685" fill="none" stroke="#4b5563" stroke-width="2" marker-end="url(#arrow)" />
<rect x="683" y="685" width="234" height="58" rx="0" fill="white" stroke="#7e9bcc" stroke-width="1.7" />
<text x="800" y="720" font-size="18" font-weight="400" text-anchor="middle" fill="#202833">catalogo.controller.ts</text>
<path d="M800 743 V840" fill="none" stroke="#4b5563" stroke-width="2" marker-end="url(#arrow)" />
<rect x="683" y="840" width="234" height="86" rx="0" fill="#d9e8cf" stroke="#91b578" stroke-width="1.7" />
<text x="800" y="868" font-size="18" font-weight="700" text-anchor="middle" fill="#202833">catalogo.service.ts</text>
<text x="800" y="902" font-size="16" font-weight="400" text-anchor="middle" fill="#202833">productos, precios, carta QR</text>
<path d="M800 926 V1080" fill="none" stroke="#4b5563" stroke-width="2" marker-end="url(#arrow)" />
<rect x="683" y="1080" width="234" height="54" rx="0" fill="white" stroke="#d5ac4c" stroke-width="1.7" />
<text x="800" y="1113" font-size="17" font-weight="400" text-anchor="middle" fill="#202833">catalogo.repository.ts</text>
<path d="M800 1134 V1160 H1095" fill="none" stroke="#4b5563" stroke-width="2" />
<rect x="960" y="535" width="260" height="620" rx="0" fill="none" stroke="#949ea8" stroke-width="1.7" stroke-dasharray="6 5" />
<text x="1090" y="562" font-size="21" font-weight="700" text-anchor="middle" fill="#202833">Pedidos y cocina</text>
<text x="1090" y="584" font-size="16" font-weight="400" text-anchor="middle" fill="#6d7783">pedidos / preparación</text>
<rect x="973" y="600" width="234" height="46" rx="0" fill="white" stroke="#7e9bcc" stroke-width="1.7" />
<text x="1090" y="629" font-size="19" font-weight="400" text-anchor="middle" fill="#202833">pedidos.routes.ts</text>
<path d="M1090 646 V685" fill="none" stroke="#4b5563" stroke-width="2" marker-end="url(#arrow)" />
<rect x="973" y="685" width="234" height="58" rx="0" fill="white" stroke="#7e9bcc" stroke-width="1.7" />
<text x="1090" y="720" font-size="18" font-weight="400" text-anchor="middle" fill="#202833">pedidos.controller.ts</text>
<path d="M1090 743 V840" fill="none" stroke="#4b5563" stroke-width="2" marker-end="url(#arrow)" />
<rect x="973" y="840" width="234" height="86" rx="0" fill="#d9e8cf" stroke="#91b578" stroke-width="1.7" />
<text x="1090" y="868" font-size="18" font-weight="700" text-anchor="middle" fill="#202833">pedidos.service.ts</text>
<text x="1090" y="902" font-size="16" font-weight="400" text-anchor="middle" fill="#202833">pedido, mesa, estado, cocina</text>
<path d="M1090 926 V1080" fill="none" stroke="#4b5563" stroke-width="2" marker-end="url(#arrow)" />
<rect x="973" y="1080" width="234" height="54" rx="0" fill="white" stroke="#d5ac4c" stroke-width="1.7" />
<text x="1090" y="1113" font-size="17" font-weight="400" text-anchor="middle" fill="#202833">pedidos.repository.ts</text>
<path d="M1090 1134 V1160 H1095" fill="none" stroke="#4b5563" stroke-width="2" />
<rect x="1250" y="535" width="260" height="620" rx="0" fill="none" stroke="#949ea8" stroke-width="1.7" stroke-dasharray="6 5" />
<text x="1380" y="562" font-size="21" font-weight="700" text-anchor="middle" fill="#202833">Caja y ventas</text>
<text x="1380" y="584" font-size="16" font-weight="400" text-anchor="middle" fill="#6d7783">caja / reportes / fidelidad</text>
<rect x="1263" y="600" width="234" height="46" rx="0" fill="white" stroke="#7e9bcc" stroke-width="1.7" />
<text x="1380" y="629" font-size="19" font-weight="400" text-anchor="middle" fill="#202833">caja.routes.ts</text>
<path d="M1380 646 V685" fill="none" stroke="#4b5563" stroke-width="2" marker-end="url(#arrow)" />
<rect x="1263" y="685" width="234" height="58" rx="0" fill="white" stroke="#7e9bcc" stroke-width="1.7" />
<text x="1380" y="720" font-size="18" font-weight="400" text-anchor="middle" fill="#202833">caja.controller.ts</text>
<path d="M1380 743 V840" fill="none" stroke="#4b5563" stroke-width="2" marker-end="url(#arrow)" />
<rect x="1263" y="840" width="234" height="86" rx="0" fill="#d9e8cf" stroke="#91b578" stroke-width="1.7" />
<text x="1380" y="868" font-size="18" font-weight="700" text-anchor="middle" fill="#202833">caja.service.ts</text>
<text x="1380" y="902" font-size="16" font-weight="400" text-anchor="middle" fill="#202833">cobro interno, turno, reportes</text>
<path d="M1380 926 V1080" fill="none" stroke="#4b5563" stroke-width="2" marker-end="url(#arrow)" />
<rect x="1263" y="1080" width="234" height="54" rx="0" fill="white" stroke="#d5ac4c" stroke-width="1.7" />
<text x="1380" y="1113" font-size="17" font-weight="400" text-anchor="middle" fill="#202833">caja.repository.ts</text>
<path d="M1380 1134 V1160 H1095" fill="none" stroke="#4b5563" stroke-width="2" />
<rect x="1540" y="535" width="260" height="620" rx="0" fill="none" stroke="#949ea8" stroke-width="1.7" stroke-dasharray="6 5" />
<text x="1670" y="562" font-size="21" font-weight="700" text-anchor="middle" fill="#202833">Inventario</text>
<text x="1670" y="584" font-size="16" font-weight="400" text-anchor="middle" fill="#6d7783">inventario</text>
<rect x="1553" y="600" width="234" height="46" rx="0" fill="white" stroke="#7e9bcc" stroke-width="1.7" />
<text x="1670" y="629" font-size="19" font-weight="400" text-anchor="middle" fill="#202833">inventario.routes.ts</text>
<path d="M1670 646 V685" fill="none" stroke="#4b5563" stroke-width="2" marker-end="url(#arrow)" />
<rect x="1553" y="685" width="234" height="58" rx="0" fill="white" stroke="#7e9bcc" stroke-width="1.7" />
<text x="1670" y="720" font-size="18" font-weight="400" text-anchor="middle" fill="#202833">inventario.controller.ts</text>
<path d="M1670 743 V840" fill="none" stroke="#4b5563" stroke-width="2" marker-end="url(#arrow)" />
<rect x="1553" y="840" width="234" height="86" rx="0" fill="#d9e8cf" stroke="#91b578" stroke-width="1.7" />
<text x="1670" y="868" font-size="18" font-weight="700" text-anchor="middle" fill="#202833">inventario.service.ts</text>
<text x="1670" y="902" font-size="16" font-weight="400" text-anchor="middle" fill="#202833">stock, ajustes, movimientos</text>
<path d="M1670 926 V1080" fill="none" stroke="#4b5563" stroke-width="2" marker-end="url(#arrow)" />
<rect x="1553" y="1080" width="234" height="54" rx="0" fill="white" stroke="#d5ac4c" stroke-width="1.7" />
<text x="1670" y="1113" font-size="17" font-weight="400" text-anchor="middle" fill="#202833">inventario.repository.ts</text>
<path d="M1670 1134 V1160 H1095" fill="none" stroke="#4b5563" stroke-width="2" />
<path d="M683 883 H643" fill="none" stroke="#69966a" stroke-width="2" stroke-dasharray="7 5" marker-end="url(#green)" />
<path d="M1253 883 H1223" fill="none" stroke="#69966a" stroke-width="2" stroke-dasharray="7 5" marker-end="url(#green)" />
<path d="M1497 883 H1550" fill="none" stroke="#69966a" stroke-width="2" stroke-dasharray="7 5" marker-end="url(#green)" />
<path d="M1090 926 V978 H1670 V926" fill="none" stroke="#69966a" stroke-width="2" stroke-dasharray="7 5" marker-end="url(#green)" />
<path d="M1090 926 V1004 H520 V926" fill="none" stroke="#69966a" stroke-width="2" stroke-dasharray="7 5" marker-end="url(#green)" />
<path d="M1095 1160 V1180" fill="none" stroke="#4b5563" stroke-width="2" marker-end="url(#arrow)" />
<rect x="365" y="1180" width="1460" height="50" rx="0" fill="#f5e7cf" stroke="#d5ac4c" stroke-width="1.7" />
<text x="1095" y="1211" font-size="21" font-weight="400" text-anchor="middle" fill="#202833">Infraestructura · Prisma / transacciones / RLS · pool de conexiones · adaptadores de archivos e identidad</text>
<rect x="1970" y="700" width="235" height="112" rx="0" fill="#eceef0" stroke="#8a929b" stroke-width="1.7" />
<text x="2087.5" y="729" font-size="17" font-weight="400" text-anchor="middle" fill="#66717e">«sistema externo»</text>
<text x="2087.5" y="762" font-size="18" font-weight="700" text-anchor="middle" fill="#202833">Fotografías y archivos</text>
<text x="2087.5" y="791" font-size="18" font-weight="400" text-anchor="middle" fill="#202833">R2 / CDN (objetivo)</text>
<rect x="1970" y="956" width="235" height="112" rx="0" fill="#eceef0" stroke="#8a929b" stroke-width="1.7" />
<text x="2087.5" y="985" font-size="17" font-weight="400" text-anchor="middle" fill="#66717e">«sistema externo»</text>
<text x="2087.5" y="1018" font-size="21" font-weight="700" text-anchor="middle" fill="#202833">Google Identity</text>
<text x="2087.5" y="1047" font-size="18" font-weight="400" text-anchor="middle" fill="#202833">Fidelidad opcional</text>
<path d="M1825 1205 H1900 V756 H1970" fill="none" stroke="#4b5563" stroke-width="2" marker-end="url(#arrow)" />
<rect x="1833.88" y="821" width="134.24" height="26" rx="0" fill="white" stroke="white" stroke-width="1.7" />
<text x="1901" y="839" font-size="17" font-weight="400" text-anchor="middle" fill="#202833">HTTPS / REST</text>
<path d="M1825 1220 H1925 V1012 H1970" fill="none" stroke="#4b5563" stroke-width="2" marker-end="url(#arrow)" />
<rect x="1833.88" y="925" width="134.24" height="26" rx="0" fill="white" stroke="white" stroke-width="1.7" />
<text x="1901" y="943" font-size="17" font-weight="400" text-anchor="middle" fill="#202833">HTTPS / REST</text>
<path d="M1095 1230 V1390" fill="none" stroke="#4b5563" stroke-width="2" marker-end="url(#arrow)" />
<rect x="1010.52" y="1309" width="168.96" height="26" rx="0" fill="white" stroke="white" stroke-width="1.7" />
<text x="1095" y="1327" font-size="19" font-weight="400" text-anchor="middle" fill="#202833">SQL · TCP 5432</text>
<rect x="975" y="1390" width="240" height="114" rx="0" fill="white" stroke="#8a929b" stroke-width="1.7" />
<text x="1095" y="1434" font-size="25" font-weight="700" text-anchor="middle" fill="#202833">PostgreSQL</text>
<text x="1095" y="1469" font-size="19" font-weight="400" text-anchor="middle" fill="#66717e">venddy_db · RLS</text>
<rect x="45" y="1320" width="775" height="186" rx="0" fill="white" stroke="#8a929b" stroke-width="1.7" />
<text x="69" y="1352" font-size="22" font-weight="700" text-anchor="start" fill="#202833">Leyenda</text>
<path d="M74 1380 H160" fill="none" stroke="#4b5563" stroke-width="2" marker-end="url(#arrow)" />
<text x="185" y="1387" font-size="19" font-weight="400" text-anchor="start" fill="#202833">Llamada de ejecución entre responsabilidades</text>
<path d="M74 1417 H160" fill="none" stroke="#69966a" stroke-width="2" stroke-dasharray="7 5" marker-end="url(#green)" />
<text x="185" y="1424" font-size="19" font-weight="400" text-anchor="start" fill="#202833">Uso entre módulos (a través de su servicio)</text>
<rect x="74" y="1440" width="84" height="24" rx="0" fill="none" stroke="#949ea8" stroke-width="1.7" stroke-dasharray="6 5" />
<text x="185" y="1459" font-size="19" font-weight="400" text-anchor="start" fill="#202833">Límite lógico del módulo o agrupación</text>
<rect x="74" y="1475" width="84" height="20" rx="0" fill="#eceef0" stroke="#8a929b" stroke-width="1.7" />
<text x="185" y="1491" font-size="19" font-weight="400" text-anchor="start" fill="#202833">Sistema externo (fuera del monolito)</text>
<rect x="1340" y="1320" width="865" height="186" rx="0" fill="white" stroke="#8a929b" stroke-width="1.7" />
<text x="1365" y="1352" font-size="22" font-weight="700" text-anchor="start" fill="#202833">Reglas de la arquitectura</text>
<text x="1365" y="1386" font-size="19" font-weight="400" text-anchor="start" fill="#202833">1. Entradas REST / eventos delegan en casos de uso.</text>
<text x="1365" y="1416" font-size="19" font-weight="400" text-anchor="start" fill="#202833">2. Cada operación conserva empresa y permisos.</text>
<text x="1365" y="1446" font-size="19" font-weight="400" text-anchor="start" fill="#202833">3. Los módulos colaboran por contratos públicos.</text>
<text x="1365" y="1476" font-size="19" font-weight="400" text-anchor="start" fill="#202833">4. Stock, pedido y cobro se confirman en transacciones.</text>
<text x="45" y="1542" font-size="18" font-weight="400" text-anchor="start" fill="#66717e">Referencia: Marketplace y Guía 03, Ing. Lizbeth Jaico Quispe, 2026-II, pág. 8.</text>
<text x="2195" y="1542" font-size="18" font-weight="400" text-anchor="end" fill="#66717e">Propuesta académica · dependencias de código en el paso 5.</text>
</g></svg>